<svg width="67" height="58" viewBox="0 0 67 58" fill="none" xmlns="http://www.w3.org/2000/svg">
<g clip-path="url(#clip0_448_567)">
<path d="M41.3566 0.347656C40.3116 2.13686 39.0643 3.83043 38.2452 5.73327C39.5272 4.74235 40.6622 3.59482 41.868 2.51382C40.6955 4.09375 39.4468 5.56281 38.5751 7.35478C39.9152 7.03741 41.0558 6.35 42.2477 5.78316C41.1792 6.77131 40.0677 7.70957 39.0601 8.83215C42.73 8.83215 45.9896 6.52462 49.2216 5.3369C47.0651 6.66598 44.8851 7.99506 42.9448 9.6332C44.2295 9.44749 45.3812 9.13843 47.0097 8.83354C45.2676 9.02618 46.6521 11.2824 46.5468 12.5297C46.745 12.0405 46.5343 11.2977 46.6535 10.7281C46.8295 11.9657 46.8655 13.2435 47.1774 14.4534C47.2896 14.3633 47.3617 14.2884 47.4878 14.2025C47.2799 15.4221 47.6028 16.6181 48.7351 17.2515C47.765 17.9445 48.7808 18.7039 49.4114 19.164C50.4647 19.7253 50.8722 19.972 49.8133 19.0061C50.2818 18.8287 50.7322 19.3013 50.7987 18.6471C49.8397 18.0096 51.0066 17.4137 51.6206 17.1226C50.8458 15.7949 51.9366 14.3868 52.7639 13.371C51.9407 13.9087 52.1417 13.432 52.7307 13.0065C51.4972 13.7923 54.7804 11.0662 55.4858 10.6019C54.3217 12.0267 52.1597 13.7687 55.1019 11.7107C54.111 13.0273 49.2839 16.2148 53.2698 16.5974L51.719 17.1434C52.1597 17.6077 52.714 17.8447 53.2906 18.1218C52.0835 18.2992 49.8757 18.3228 51.8479 19.3692C49.7357 18.7053 52.1722 20.3282 52.8762 20.8715C52.3218 20.6345 51.6996 20.2076 51.1743 20.0649C52.301 20.6872 53.5012 21.3399 51.5457 20.5167C51.9504 20.8285 52.1347 21.0156 51.5208 20.9574C52.4771 21.9927 53.4527 22.1119 54.4242 21.1944C53.6842 21.7889 53.6897 21.7723 53.6107 21.9622C54.2593 22.0841 54.6391 21.6642 55.1089 21.3122C55.6632 21.5035 56.1719 20.6816 56.7526 20.4945C56.2897 20.8188 55.9584 21.1265 55.5052 21.5035C56.5585 21.7889 58.5154 19.8847 56.6583 21.3732C57.3596 21.2249 57.9583 20.8451 58.6124 20.5929C57.9264 21.0835 59.8002 20.0815 60.1993 20.0704C59.6449 20.3407 57.9514 21.3815 57.6395 21.1376C55.7935 21.7058 54.2663 23.1818 52.7556 24.3002C54.2538 23.4271 53.3197 23.8609 52.6517 24.5635C53.7756 23.9205 54.9509 23.0543 56.0485 22.5207C55.0673 23.3606 53.4901 23.9149 52.8609 24.9724C54.919 23.811 57.0256 22.4473 59.0587 21.3829L52.7071 25.2953C54.8206 24.2337 57.0658 22.6468 59.2056 21.4854C57.0852 23.0335 54.5961 24.5095 52.6558 26.0936C54.5531 25.1068 56.5197 23.8761 58.3838 23.0058L54.6765 25.2038C58.4544 23.3356 55.0853 25.1387 53.2698 26.1629C55.1657 25.3618 57.1919 24.1464 59.1294 23.2081C56.7498 24.6952 53.9392 26.088 51.6455 27.6527C53.5858 26.8212 55.4609 25.7596 57.4123 24.9557L52.8041 27.7275C55.526 26.9542 61.3884 24.3057 61.8416 24.375C59.5618 25.7305 56.9494 26.9487 54.6765 28.4745C55.2308 28.2819 58.083 27.0124 57.0076 27.6804C55.3071 28.5286 49.8397 31.3129 55.2987 30.1653C53.784 31.3461 64.5441 28.6519 66.6562 28.6256C63.9731 29.3407 61.1126 29.9464 58.514 30.7128C61.2858 30.0115 64.0576 29.3712 66.8295 28.6769C61.5824 30.3566 55.6799 30.7169 50.753 33.364C53.7576 32.9815 51.0302 32.9815 49.9311 33.9419C51.1618 33.8948 52.3218 33.6329 53.5608 33.5857C49.7732 34.1969 50.6906 34.5947 53.9267 34.2912C50.0115 35.0603 58.5099 35.0867 60.1217 35.1781C59.6768 35.5745 50.7904 35.5468 46.8392 36.3215C49.1024 36.7498 51.3836 36.6347 53.6592 36.9064C51.6483 36.9133 40.4142 36.1774 47.2439 36.8218C45.8372 36.8357 45.3175 36.7747 46.7366 37.0851C51.0634 37.6769 47.1275 37.3914 44.9987 37.6742L45.7166 37.8017C44.9544 37.8294 44.1783 37.6118 43.4146 37.9721C44.5234 38.0747 47.5183 38.4406 44.9156 38.3422C46.7879 38.636 43.8443 38.2659 43.1 38.1662C43.8734 39.0822 45.8316 38.672 46.9806 39.1654C45.6501 38.9727 45.3771 38.9811 46.86 39.2555C45.991 39.2305 44.9765 39.0018 44.0605 38.909C45.2828 39.674 47.0942 40.0066 48.3928 40.6178C46.6313 40.4293 42.0038 39.3899 45.621 40.7564C40.4003 39.3566 47.6888 42.6634 49.5639 43.5961C47.9008 43.1124 46.0825 42.091 44.4665 41.9718C46.9612 43.7167 49.7773 44.982 52.3953 46.5162C50.5728 45.6722 48.7919 44.7409 46.9251 43.9911C48.1724 44.831 49.5376 45.4837 50.814 46.2806L49.3338 45.4685C52.0086 47.1939 55.12 48.6921 57.6368 50.4286C53.8546 48.3082 50.0614 46.1808 46.3888 43.8858C45.6556 43.4201 44.8823 43.0071 44.1062 42.6149C45.2496 43.4936 46.9127 44.2364 48.0574 45.1095C46.6576 44.3708 45.1844 43.3522 43.8221 42.7535C46.2904 44.2849 47.158 44.849 47.1621 44.9903C45.3992 44.0354 43.7098 42.9461 41.8735 42.1187C43.2594 43.4215 44.8241 44.4748 46.3015 45.6514C44.7451 44.6674 43.2525 43.5809 41.6102 42.7258C43.0307 44.1837 44.6412 45.4255 46.1656 46.7629C42.7466 44.3722 40.9339 43.2275 45.0763 47.0526C44.1256 46.3236 43.2081 45.5489 42.1992 44.8961C43.6558 46.7795 45.2981 48.4994 46.8697 50.2817L42.9157 46.6493C44.0757 48.5978 45.9647 50.5298 47.4033 52.4479C46.0908 51.1285 44.9364 49.6511 43.6142 48.3387C45.0237 50.2637 46.5329 52.1097 47.9909 54.0029C47.7872 54.183 41.6157 46.6188 42.9268 47.4766C42.809 47.1995 42.0204 46.3679 42.536 46.3679C42.3586 45.9521 40.9879 44.5371 41.9386 44.6591C41.8791 44.472 41.4813 44.0812 41.8555 43.9994C40.8854 42.863 36.4394 38.3546 38.9992 42.8907C36.7609 40.9089 34.8414 39.3566 34.9426 43.7014C33.7216 39.4634 33.2795 42.924 33.0259 45.1164C33.5096 44.1851 33.5207 46.4289 33.608 46.8239C33.9438 47.1568 34.1832 47.5744 34.3009 48.0324C35.1256 48.0421 35.0188 50.0738 35.3501 50.7543C35.3348 49.7176 35.3903 49.8424 35.6037 50.764C35.5718 50.5229 35.5108 49.8368 35.6314 50.4203C35.8559 52.258 37.1559 60.9365 36.3562 56.3021C36.8302 59.9664 35.8144 53.5552 35.5649 52.1291C35.5233 53.6287 35.9405 55.3167 35.9543 56.8841C35.4623 53.9848 35.0826 51.0634 34.3009 48.2195C33.9905 49.4668 33.9739 50.7363 33.8519 51.9975C33.5747 48.9914 34.0709 43.9592 32.0308 50.1043C32.2664 46.6049 32.9109 40.9324 29.758 47.4628C29.8758 46.3333 31.252 43.9038 30.498 43.2261C30.006 43.6654 28.9527 44.9792 27.7761 46.7061C28.3305 45.5364 29.162 44.35 29.5279 43.1582C28.2667 44.3459 27.3978 45.9549 26.2475 47.2189C30.8209 40.2395 23.8138 49.8798 21.649 52.0307C23.581 49.4848 29.4711 42.2781 24.4347 47.9908C25.5517 46.4913 27.1012 44.9515 28.0089 43.4714L25.3439 46.3402C27.826 43.3896 29.0248 42.098 25.4644 45.8233C28.7144 42.0453 28.8571 41.7917 24.9322 45.262C25.9246 44.2752 26.9224 43.2954 27.8426 42.2352C26.4567 43.1831 25.1443 44.5177 23.8305 45.4227C24.7299 44.5164 25.7333 43.7596 26.436 42.6676C24.8976 43.4159 21.8625 45.6805 19.7753 47.0193C20.5168 46.4012 21.5368 45.844 22.1424 45.1968C20.8189 45.9715 19.6145 47.1052 18.3132 47.8536L18.6333 47.6C18.5793 47.5667 18.5793 47.5667 18.3173 47.6873C20.0054 46.4081 19.4732 46.8862 18.1136 47.679L21.6324 45.2135C19.8474 46.1836 18.1677 47.6956 16.2759 48.6186C18.1884 47.241 20.2382 46.0228 22.0759 44.5371C23.3232 42.6911 20.5334 44.0368 19.9569 44.6508C21.2319 44.5413 17.4068 46.5509 16.7693 47.187C24.0342 42.8062 15.4333 48.0934 12.4314 49.8992C14.6059 48.2361 17.1961 46.7684 19.3859 44.9945C17.1435 46.0561 14.951 47.2119 12.7432 48.3428C14.8803 47.0817 23.9912 41.9912 17.9334 44.7783C20.6318 43.3674 14.2968 46.2764 13.0523 46.774L18.158 44.1837C17.2793 44.3875 16.4949 44.8143 15.6536 45.1261C16.9009 44.4581 13.9559 45.754 13.45 45.8094C14.3828 45.4019 14.8554 45.165 13.6039 45.6292C15.1284 44.7242 17.3278 44.1047 18.8703 43.2067C17.623 43.6751 11.9408 46.2487 14.7528 44.7783C11.3643 46.0173 19.5203 42.7576 20.8369 41.6656C18.3797 42.2061 16.0029 43.0265 13.5956 43.7361C19.0505 41.6877 22.7425 40.439 14.3689 42.292C14.592 42.1257 15.8934 41.8194 17.1726 41.3787C12.2776 42.5539 15.0272 41.7127 18.1843 40.8562C16.4866 41.1084 14.5089 41.8263 12.8111 42.0813L17.8919 40.834L17.6757 40.816C22.5554 39.6546 15.3709 40.7204 13.9531 41.1639C15.5733 40.1702 20.3768 40.4709 19.9458 37.9139C21.9553 37.9139 14.7639 37.1226 14.0654 37.1974C16.2426 36.6915 18.729 36.643 20.6193 35.3625C19.9264 34.7887 20.0511 34.7762 20.8203 35.095C21.1279 34.4408 19.6769 34.2219 19.3706 33.7229C22.7134 35.271 17.7852 32.0169 16.4214 31.5706C12.6338 32.2636 8.7366 31.2366 4.93645 30.9678L15.0009 33.0286C12.613 32.5713 3.99127 30.9498 4.65512 30.8541C8.46496 31.1937 12.4342 32.222 16.2219 31.4459C11.1328 29.2077 11.6359 29.5181 16.5572 30.7183C14.6475 28.2625 11.3975 27.115 8.94587 25.3272C8.835 24.8296 12.0434 26.4497 14.4618 27.029C12.7557 26.1448 10.8335 25.3382 9.23136 24.4152C11.2479 25.2468 13.3281 26.3846 15.3751 26.9209C13.5457 25.8455 11.5375 24.8213 9.79404 23.7195C22.87 30.7308 4.77292 19.0698 0.674805 16.2467C5.94123 19.778 11.5167 23.0529 16.3632 27.0942C17.2987 25.8469 12.4203 23.987 10.7919 22.4944C12.7917 23.5393 14.768 25.0971 16.8219 26.0589C14.0238 24.1713 8.13512 20.6497 14.1735 23.9759C7.89674 20.0524 15.4139 24.9627 18.3104 25.8081C16.7582 23.3301 14.0723 21.7183 11.8341 19.8764C10.8806 19.0352 13.5207 21.1792 14.01 21.4189C11.8673 19.4191 9.50577 17.6007 7.3798 15.6245C8.48852 16.4906 7.95495 16.0624 7.31605 15.4207C10.9624 18.2937 14.6419 21.4813 18.2758 24.1963C16.4117 22.5928 14.2982 21.0087 12.5548 19.3983L19.0463 24.7589C17.0506 22.7923 14.75 20.9061 12.6144 19.0088C15.0799 20.7315 17.465 22.8603 20.0553 24.5635C20.1038 24.2753 20.1453 24.0258 20.1938 23.7403C23.1333 27.564 19.7199 22.2297 18.5862 21.2983C17.5565 19.8875 16.7956 19.0948 15.1214 20.1175C15.558 19.8002 16.2828 19.6006 16.8372 19.3137C16.1442 17.8876 15.023 18.7594 13.8866 18.9132L15.9197 18.2674C15.0882 18.1357 14.3634 18.4753 13.6094 18.6152C13.8949 18.496 14.3412 18.4642 14.5477 18.2965C11.7759 18.5515 16.4713 17.5841 17.5066 17.264C20.0262 16.7415 22.5527 15.9266 19.3083 13.881C21.6643 13.6981 17.1365 13.0494 16.244 12.818C17.7006 12.7404 19.1309 12.7487 20.5764 12.4992C20.0733 10.1432 17.7131 10.0614 15.9114 9.15506C20.5722 10.4509 19.1863 9.91315 15.6204 8.78226C18.23 9.56113 15.1533 8.5619 14.0682 8.2279C15.6952 8.61733 17.4636 9.28257 19.1364 9.7607C15.8102 8.5522 15.4042 8.44271 19.1364 9.64706C18.2508 8.17107 18.7109 8.74622 19.4136 9.77318C18.5363 8.16553 18.3548 8.06159 19.6229 9.7219C19.566 9.60825 20.2049 10.1377 20.647 10.1543C19.6118 7.47396 20.6581 10.9318 23.642 11.1244C24.5844 11.3282 22.4667 10.6158 22.2076 10.3996C23.1042 10.4647 24.4014 11.5665 25.1069 10.9775C24.9336 11.5845 28.6825 12.502 26.3999 10.6893C26.9455 10.9122 27.4665 11.1909 27.9549 11.5208C28.4649 11.0926 29.618 10.1834 28.7158 11.3365C29.7372 11.1785 30.6394 9.26871 31.6705 10.0115C32.9871 7.77609 34.5684 6.06312 35.8282 3.93021L35.5108 4.23373C36.1497 3.4992 36.8967 2.59975 37.6451 2.05509C36.711 3.17628 34.1804 5.65843 36.7429 3.62116C36.4449 4.17552 34.276 5.93839 35.1768 5.8386C33.9378 6.70202 33.3835 8.05604 33.5318 9.54866C32.2595 8.43994 33.0024 10.796 33.2463 11.4127C32.0295 9.53341 30.7115 11.7938 29.9437 12.8887C30.3691 13.0508 30.7018 12.8416 31.1009 12.168C32.739 12.7085 33.8727 10.6851 35.1796 10.0684C33.4375 11.8479 37.2626 8.68801 38.1177 8.1683C36.6251 9.69279 34.312 10.8431 32.8513 12.5422C33.2671 12.4771 33.6399 12.2775 34.0376 12.1486C32.5686 13.0522 34.0459 12.4258 34.8317 12.1652C33.5124 13.0702 37.3264 11.7647 38.1759 11.6261L38.0179 11.7481C38.3381 11.6954 39.5341 11.2575 39.232 11.5194C35.5635 12.6503 31.3878 12.8679 28.4109 15.5191C28.756 15.3209 28.5384 15.5413 28.336 15.6896C29.144 15.3875 27.3326 16.4491 28.1614 16.244C30.3394 15.1107 32.8078 14.6583 35.2461 14.9454C35.0729 14.7292 34.7139 14.6599 34.5296 14.5074C37.0935 15.1727 35.2226 15.0507 37.9722 15.7464C34.9925 14.3605 37.3846 14.2219 39.2057 14.1831C42.3544 13.7881 33.2851 14.1443 41.3871 10.6615C40.7523 10.8071 40.0912 11.0302 39.39 11.0773C39.6256 10.8722 39.9374 10.8195 40.2423 10.6532C38.6347 10.868 37.5689 10.2499 38.995 8.84046C37.8059 8.82383 38.8564 7.37972 38.1635 7.35893C38.0829 7.34239 38.0102 7.29949 37.9567 7.237C37.9032 7.17451 37.8721 7.09599 37.8683 7.01385C37.7047 6.64935 38.3741 5.77485 37.7615 6.00491C38.0637 4.67306 39.2098 3.65719 39.803 2.44453L37.5925 5.33552C38.6679 3.69738 40.1301 1.89294 41.3566 0.347656ZM21.3137 39.9138C21.1598 39.9761 20.4821 40.191 20.9284 40.1438C20.4627 40.5333 19.5494 40.3586 19.1808 40.8562C20.0428 40.6566 20.9935 40.5554 21.48 39.7308C21.2499 39.5188 21.0198 39.8112 21.3137 39.9138ZM30.0199 23.5754C30.0199 22.6052 29.5376 20.191 28.4039 21.7446C28.4815 22.5387 30.4966 27.6652 29.0137 26.6507C28.9569 27.1177 28.8848 27.7871 28.3125 27.837C28.3942 29.3615 27.1428 27.5197 26.5302 27.9022C27.5267 29.4267 28.7754 30.8444 29.2563 31.2075C28.9583 29.8771 30.2652 32.3246 30.6283 32.7196C30.8611 33.382 29.6263 31.6746 29.3089 31.3628C29.8716 33.3806 29.4101 32.9801 27.6625 33.3363C28.318 33.7521 30.103 34.9231 28.3554 34.3868C29.5612 35.5925 30.2098 37.2653 29.4461 38.8951C29.6845 38.8078 30.832 38.3214 30.2915 38.8494C30.9235 39.3816 29.4946 40.2755 29.2188 40.8118C29.7483 40.3864 31.1951 39.1862 30.1377 40.439C30.7406 39.911 31.3961 39.2998 30.5784 40.3794C31.0981 39.9207 30.6976 40.464 30.505 40.737C31.1841 40.0551 30.7946 40.694 30.4883 41.1167C31.7994 39.8098 32.7349 37.6755 34.2303 36.7123C33.5184 37.4316 32.9277 38.2614 32.4813 39.1695C33.0661 38.8924 32.5769 40.1161 32.6018 40.4654C33.3336 38.8549 33.6593 39.3566 33.8838 40.7703C34.725 37.4538 39.1821 40.8631 37.3278 38.8217C37.8156 38.8827 38.2147 39.1557 38.6915 39.2374C38.4988 39.0296 36.9064 38.3976 37.7338 38.5043L36.79 38.0705L36.912 38.0151C38.0872 38.1537 37.4497 38.5694 39.7448 39.1973C38.1482 38.1066 40.2395 38.4544 41.0919 38.5376C40.8341 38.2756 40.4945 38.3546 40.2382 38.2036C41.4979 38.2271 43.7029 38.1398 41.1667 37.9056C41.2402 37.5134 43.2539 37.6187 44.5843 37.7254C43.7375 37.4205 42.7064 37.2598 41.7737 36.9964C41.7737 36.5349 41.6351 36.5294 42.2519 36.2397C41.9068 35.7062 43.4992 35.7034 43.8678 35.483C43.4174 35.4373 42.7217 35.6992 42.3433 35.5579C43.1375 35.2031 44.145 35.3597 44.7617 34.7485C45.4852 34.3452 46.6188 34.3868 46.9792 33.5566C46.5981 33.583 46.1809 33.741 45.7457 33.6245C47.1483 32.6156 49.0857 32.484 50.5617 31.5817C49.162 31.773 47.7068 32.5158 46.2128 32.4978C47.1399 31.6441 49.0885 31.0551 48.9666 30.7627C48.135 30.9013 47.1829 31.493 46.4248 31.3974C47.3104 30.5964 48.6686 30.394 49.3574 29.3574C47.2952 30.1168 44.9447 30.8597 48.1101 28.5397C47.9257 28.4912 47.923 28.4413 48.0948 28.2334C47.7858 28.0366 47.3534 28.566 47.0014 28.6672L47.3783 28.864C46.0271 29.1065 45.6515 30.0489 45.761 31.3129L45.3064 30.7405C44.9946 31.6275 44.8643 32.5075 44.673 33.3737C44.6855 32.4036 44.6037 33.1048 44.5566 33.6606C44.4638 33.4915 44.6148 31.6871 44.7354 31.5817C44.7354 31.6746 44.7437 31.7605 44.7506 31.8936C45.0278 30.5811 45.9536 29.7066 46.2751 28.3831C44.6827 29.2146 46.5232 28.1336 46.9681 27.5141C45.4852 28.4316 46.2155 27.6305 47.0873 26.9681C46.8101 26.8489 46.7242 27.1829 46.483 27.2037C47.0194 26.7491 47.3146 26.106 47.7303 25.5323C46.5107 26.2904 46.7602 25.4089 47.0568 24.5358C46.3638 24.8061 46.6147 26.5454 46.5315 24.9987C45.2288 26.0645 45.6612 26.1767 45.2995 26.8253C45.2856 26.2072 45.6265 25.6182 45.1927 25.0666L44.6606 26.993C44.6037 26.2807 45.4616 25.3299 44.8989 24.7548C44.3072 26.3333 42.7286 26.5204 41.2956 25.9868C41.4522 26.1254 42.2962 26.6659 41.7945 26.5994C40.999 26.2058 39.1766 25.1872 40.963 26.0991C39.5674 25.2038 41.3981 26.1143 40.4654 25.4851C42.3572 26.2987 44.2781 26.5939 44.5331 23.944L44.8823 24.6217C44.9613 24.4513 45.0209 24.3265 45.0944 24.1699C45.1359 24.3986 45.1706 24.5857 45.2135 24.8088C45.6709 22.9157 45.955 23.6114 45.7249 25.1331C45.9827 24.4527 45.9827 23.6419 46.3763 23.0335C46.4101 23.1266 46.4538 23.2158 46.5066 23.2996C46.7145 22.6745 46.5925 21.3912 46.2128 22.6288C46.6521 20.6386 45.8483 22.4362 45.6182 23.3619C45.524 21.5603 45.3688 22.7799 44.9322 20.9824L44.5705 21.4258C45.1692 19.6685 43.028 21.1487 42.2283 21.4258C44.8144 18.4988 40.5375 19.9887 38.9603 19.7628C40.945 19.2486 43.0765 18.7926 39.8501 19.6463C41.4744 19.4551 43.2054 19.1446 44.5525 20.3199C45.4145 18.3713 42.4736 18.0706 41.1778 17.8391C42.2089 17.6063 43.2996 17.4026 41.5936 16.9106C40.1009 16.517 37.2737 15.727 40.2589 16.8607C38.4226 16.3229 34.5573 14.8913 38.3381 16.6514C37.4816 16.5987 33.1312 14.0348 34.2552 16.2952C31.8091 14.7167 29.6138 16.4671 28.3069 18.5931C27.5987 19.5064 28.3637 18.3685 28.2764 18.0553C27.3188 19.2098 26.4748 19.7905 27.2315 21.3011C28.1947 21.0849 28.002 20.7467 27.8842 20.0178C27.9064 21.3746 29.3186 20.5583 29.8439 21.6393C30.7835 23.3495 30.426 22.9573 30.9318 21.4314C31.4294 22.8755 31.1896 24.655 31.306 26.1435C30.6796 23.3315 30.5008 22.8422 30.1973 26.0326C30.0559 25.2232 30.1751 24.3917 30.0199 23.5726V23.5754ZM43.1153 15.1532C43.8512 16.0929 45.3133 16.851 45.5046 18.1828C45.5351 18.4739 45.6695 18.5543 45.9093 18.5459C46.6881 18.4794 46.8628 19.3096 47.1081 19.8722C47.0942 18.9215 47.4254 19.6353 47.6098 20.1494C47.4712 18.6 48.293 20.2423 48.1198 19.638C47.9244 19.2555 47.6001 18.5113 48.3304 18.9257C46.9154 15.0909 46.3763 12.387 46.0257 9.17031C45.1027 9.47659 42.1133 10.4301 44.3848 9.82584C43.4798 10.2804 42.4237 10.4287 41.5257 10.8985C42.9116 10.7364 44.4582 10.2527 45.8954 9.98522C44.181 10.8251 41.3746 10.3331 40.5666 12.3565C40.3712 12.8346 40.0691 13.9919 40.7579 14.1582C40.1896 14.1582 41.1445 15.3043 41.3857 15.5302C41.8014 15.7852 44.0036 16.4546 43.3509 16.5239C45.9952 17.6673 41.8832 14.2593 41.2014 13.7715C41.6227 13.8727 43.8207 15.5371 43.1153 15.1505V15.1532ZM28.5564 16.6306C27.9577 15.9557 26.4595 17.397 27.783 16.2398C27.377 16.1816 27.0028 16.8274 26.6522 16.8399C28.731 15.7187 25.0639 15.6951 27.3243 12.9122C25.4533 13.9711 24.7438 13.4153 24.9918 11.3212C22.8867 13.3862 22.6358 11.2048 20.8785 10.5534C20.8896 11.1341 21.1557 11.4113 21.6019 11.7148C22.1161 12.3094 20.9755 12.4078 20.6055 12.5769C20.672 12.9483 20.8161 13.3654 20.4322 13.7161C23.3759 14.7777 21.0101 14.9953 21.2527 16.9314C22.8465 16.7706 20.866 17.3596 20.7635 18.0401L21.5811 17.7477C21.3317 18.0248 20.7399 17.8932 20.6207 18.302C22.7633 18.1745 23.9469 20.1494 24.9794 21.7141C25.4159 21.3732 25.1817 20.9796 25.0847 20.5319C25.2829 20.5749 25.4838 21.9663 25.5864 21.3011C25.3355 19.875 25.2565 19.2763 26.569 20.1924C26.4526 18.1551 25.6349 16.9646 28.5564 16.6306ZM19.1849 30.0323C19.9901 29.5223 18.7387 30.6102 19.1517 30.9484C20.2091 30.6047 20.927 29.8313 21.3691 31.6621C21.5548 30.3552 22.2852 29.4045 23.4479 30.6518C23.1153 29.8549 21.9429 29.5015 21.3067 28.8764C21.9636 29.1425 22.6926 29.7218 23.3967 30.1085C23.6046 28.9998 22.2478 28.7101 21.595 28.0158C23.5422 29.3089 23.2317 29.0206 25.2482 28.1322C24.7202 27.1704 23.6822 26.616 23.1902 25.7443C23.0793 25.4671 23.2609 24.9932 22.9837 24.8338C21.9747 25.8289 20.866 27.9202 21.9567 25.3881C21.2153 25.4075 20.6512 25.0112 20.0677 24.6314C19.6672 25.4838 19.8404 25.4228 20.4738 26.0173C19.961 25.9453 19.7323 25.5641 19.2986 25.8302C21.3663 28.2306 18.0512 25.7637 17.052 26.149C19.408 27.6652 19.6617 27.9992 17.0728 26.3901C17.2557 27.0692 18.3714 27.3603 18.8468 27.9548C19.1683 28.232 18.9853 28.2971 18.6555 28.2001C18.6125 28.8099 18.2633 29.1273 17.9071 29.55C18.7927 29.4502 19.5619 28.7656 19.1849 30.0323ZM23.4521 33.7742C22.4252 32.1832 23.5907 35.404 20.4586 33.1755C20.7468 33.5913 22.1895 34.9342 20.9173 34.5614C21.0143 34.7638 21.2388 34.7804 21.3525 34.937L20.9838 34.7485C21.5922 35.2183 21.7225 35.483 20.8605 35.1837C21.2624 36.3548 22.561 37.6243 21.2762 39.2277C21.3594 39.2901 21.4827 39.3663 21.5853 39.3206C22.6802 38.3865 21.0905 40.1854 22.5249 39.2555C23.2941 38.8591 23.1278 39.8098 23.6628 39.9346C24.1187 40.184 24.3225 39.4426 24.8546 39.5659C25.2191 39.1321 25.786 39.2596 26.2793 39.4828C25.7943 38.873 25.6876 38.5999 26.2793 39.3705C26.2475 39.2319 26.2267 39.1446 26.1934 39.006C28.2085 40.4141 26.7727 39.0698 25.6155 38.5015C25.7846 39.1682 25.3702 38.2424 25.7278 38.3768C28.5439 40.2367 24.6537 37.293 23.6046 36.4047C24.6523 36.8967 25.6834 38.3186 26.8171 37.5369C26.1629 36.2481 22.6594 36.7054 25.3951 36.255C24.4998 35.5052 24.2864 34.1692 23.4133 33.5137L23.4521 33.7742ZM17.1587 19.3886C18.9063 21.0212 20.5805 22.6939 22.385 24.2628C22.967 22.353 20.338 20.8105 19.5203 19.1349C19.0366 18.3214 21.9803 22.0952 22.737 22.967C22.6968 21.6822 21.0739 20.5874 20.4627 19.3969C21.2943 20.2146 22.0579 21.4868 22.888 22.4805C23.8984 18.5141 19.9596 17.7116 17.1587 19.3886ZM23.6378 33.2698C24.1132 34.3217 28.4885 35.2613 25.5337 36.2869C26.4429 37.0533 28.1517 37.0145 29.1787 36.3714C30.2541 35.0299 24.5511 32.9732 28.1309 34.2496C27.0749 32.7112 24.9433 33.2795 23.3385 32.6891C23.5713 33.382 24.4375 33.3682 25.0015 33.6772C25.2053 33.8962 23.958 33.3446 23.6378 33.2698ZM25.3439 28.171C27.9632 31.5887 25.865 30.5742 23.5422 29.2894C24.073 30.2041 25.4603 30.6324 26.0742 31.6053C25.3092 31.3447 22.4016 29.5417 24.1561 30.789C25.4492 31.263 29.7108 34.6972 29.1939 31.5249C28.3388 30.4702 27.3465 29.4391 26.4567 28.3581C26.7062 28.7739 27.0596 29.1218 27.2495 29.5805C26.5205 29.3116 26.1019 27.995 25.3439 28.171ZM26.1976 22.1049C25.4589 22.4223 26.5399 23.9537 25.7264 22.4375C25.8996 23.2843 26.0631 23.6474 25.4935 22.6648C24.1839 23.9316 24.2462 24.691 25.5019 25.9328C25.0584 25.5738 24.662 24.8421 24.2351 24.3598C24.5705 25.2191 25.7153 26.3139 26.1172 26.6327C29.6554 29.5334 27.6015 25.6625 26.8656 23.6849L25.7818 25.4186C26.0368 24.2739 27.0222 23.2497 26.1934 22.1049H26.1976ZM48.8169 25.3743C49.5098 24.7534 52.8471 22.9642 50.48 23.2802C51.0731 22.9295 51.9823 23.1818 52.4812 22.6066C51.7231 22.5734 52.1361 22.6815 51.5111 22.6704C51.5539 22.7095 51.5887 22.7566 51.6136 22.809C51.2741 22.5138 50.8763 22.6704 50.48 22.6246C50.5276 22.6967 50.568 22.7733 50.6005 22.8533C50.4883 22.5942 50.2638 22.6205 50.0462 22.608L50.3608 22.5872C50.0836 22.2061 49.9201 21.8943 49.4433 21.7931H49.7662C49.0317 20.8978 49.0885 20.6844 48.5854 19.9346C48.5064 20.8202 49.471 21.8111 49.6567 22.6579C48.3124 20.3892 48.8876 21.7598 49.611 23.3425C49.2327 22.7258 48.9347 22.0647 48.4898 21.4868C48.566 22.1049 48.7822 22.6787 48.9666 23.2774C49.0465 23.18 49.1346 23.0896 49.2299 23.0072C49.0483 23.2247 48.9139 23.4396 49.1232 23.7334C49.0067 23.7334 49.0192 23.5463 48.9458 23.4326C48.5508 23.987 48.1253 24.4998 47.8537 25.111C48.5369 24.6952 49.0857 24.1297 49.7039 23.6447C49.1634 24.3376 48.1946 25.0306 47.9202 25.7776C48.591 25.3396 50.2 24.1408 48.8127 25.3743H48.8169ZM59.3691 25.4505C58.5085 25.8829 48.688 28.785 51.9116 29.5971C54.5684 28.5896 56.8038 26.702 59.365 25.4505H59.3691ZM58.3172 35.2752C54.7208 35.1962 50.7377 34.3674 47.3534 35.6715C51.008 35.6674 54.6654 35.5482 58.3131 35.2752H58.3172ZM28.9333 26.4705C29.0567 24.9973 28.5356 23.3356 28.264 21.8083C26.1671 23.5601 27.9092 24.6786 28.9333 26.4705ZM11.9852 26.9348C12.9733 27.7927 14.5089 28.5314 15.5635 29.5154C16.3507 30.2693 17.5329 31.8561 18.5557 30.5257C18.2924 30.157 18.0443 30.3691 17.7824 30.5576C16.6252 31.1992 17.921 30.4827 18.0388 30.1515C16.8746 30.728 16.3106 30.7557 17.8032 29.981L11.9852 26.9348ZM55.7464 31.2851C58.5057 30.6823 61.4036 29.83 64.2087 29.1453C60.3864 30.0739 55.9307 29.9353 52.3689 31.3212C54.9343 31.001 61.4341 29.4599 55.7464 31.2851ZM47.3894 6.25714C44.6176 7.46565 41.631 8.71296 39.074 10.437C39.293 10.6241 41.0863 10.2527 42.317 9.79396C40.2506 9.5445 46.7658 6.70479 47.3894 6.25714ZM24.2739 43.7305C25.0637 43.4567 25.7502 42.9468 26.2405 42.2698C25.7915 42.5054 25.1069 42.8325 25.7 42.1063C24.4597 43.0625 23.1846 42.3169 22.0413 43.2025C22.5582 43.6432 23.3218 42.6024 24.0162 42.8048C23.6115 43.5462 22.7689 43.9398 22.1826 44.5413C22.8576 44.2863 23.4202 43.8775 24.0397 43.549C23.7736 43.9121 23.028 44.1921 22.7924 44.5538C23.1666 44.2475 25.2164 42.9184 24.2739 43.7305ZM44.0452 17.4622C44.2249 17.5042 44.3883 17.5982 44.515 17.7324C44.2379 17.9639 43.8013 17.9514 43.4839 18.0484C44.9599 18.2674 45.3688 18.636 44.8255 20.0857C46.4636 18.6998 45.2523 22.0024 45.8705 20.6705C45.9259 20.7107 45.8455 20.8451 45.8469 20.9255C46.7034 20.1439 46.0215 18.2341 44.7701 18.2577L45.3923 17.8668C44.9571 17.5606 44.4956 17.5315 44.0452 17.4622ZM16.7319 43.9329C18.1552 43.6904 20.9533 41.9497 21.7447 42.2878C22.5208 42.2255 22.062 41.4868 21.674 41.2456C20.1952 42.2989 18.4282 43.0833 16.7319 43.9329ZM25.7236 41.5769C25.6169 41.5297 25.2649 41.6184 25.5642 41.4507C25.1484 41.4771 25.1207 41.4189 25.4977 41.2276C24.8463 41.4119 24.231 41.2844 23.6059 41.272C23.2955 41.5491 22.87 41.8083 22.5887 42.0592C23.4549 41.739 22.9948 42.0799 22.4764 42.3488C22.9712 42.6468 23.4078 42.0176 23.9316 42.0273L23.7237 42.2061L25.2967 41.9926C24.8366 41.854 25.3272 41.8028 25.5393 41.7404L25.4589 41.6531L25.7236 41.5769ZM29.7427 12.9386C30.1807 11.4141 29.7427 10.4343 28.4122 11.8673C28.6479 12.0987 29.3907 12.5214 28.6548 12.4036C29.0073 12.606 29.373 12.7843 29.7496 12.9372L29.7427 12.9386ZM19.0616 18.2937C18.2023 18.1551 17.0589 18.1246 16.172 18.3256C16.9023 19.8182 17.9695 18.7095 19.0616 18.2937ZM47.036 35.6507C44.4513 35.4429 42.5512 36.7026 46.5759 36.3284C45.9938 35.9737 46.7062 35.7907 47.036 35.6507ZM21.1695 38.7122C20.4766 39.0905 19.6894 39.2333 19.3277 39.9914C20.8757 40.1106 21.1224 39.692 21.1695 38.7122ZM17.1504 25.6057L17.1296 25.621C17.7685 26.0811 18.4933 26.2446 19.2085 25.8067C18.3451 24.9294 17.4581 24.0909 16.4367 23.4132C17.167 24.0909 19.9097 26.6867 17.1435 25.6057H17.1504ZM25.8982 40.7606C25.093 40.2783 23.8388 39.6823 23.4299 40.8673C24.2393 40.6885 25.0057 40.816 25.7679 40.9754C25.3979 40.7619 25.5005 40.6954 25.8982 40.7606ZM47.0762 23.197C47.0762 22.6551 47.054 22.1077 47.2259 21.5727C47.5031 21.9885 47.5238 22.4791 47.6791 22.9323C47.4116 21.1972 47.9327 22.6482 48.0408 23.5615C48.8806 22.3489 45.8067 19.1613 47.0762 23.197ZM28.9555 42.2227L28.6714 42.0993L28.731 42.2615H28.512C28.634 42.4458 28.6742 42.4902 28.4386 42.5705C28.7573 42.7091 29.0498 42.662 28.9805 43.0667C29.3962 42.7895 29.5875 43.2136 29.9866 43.3092C29.6277 42.856 29.9534 42.6676 30.3872 42.4777C30.0809 42.5304 29.6803 42.2005 29.4669 42.5151C29.5778 41.9275 29.5127 42.0882 29.1828 42.3765C29.3214 42.2213 28.7726 41.8291 28.9555 42.2227ZM52.8748 23.6765C53.7673 23.4396 54.761 22.4292 55.7228 21.9026C55.1588 21.8721 52.4535 23.2317 53.127 23.4964L52.8748 23.6765ZM39.7378 38.9215C40.4474 38.8328 41.1016 39.0393 41.7668 39.1155C41.3704 38.295 40.173 38.5279 39.2943 38.5279C38.8425 38.6083 40.1855 39.455 39.7378 38.9201V38.9215ZM21.7073 40.7772C22.0662 40.791 23.5907 40.5638 23.3204 39.9138C22.8465 39.9013 22.1812 39.4342 21.8098 39.753C22.3489 40.6414 23.1444 40.1411 21.7073 40.7758V40.7772ZM25.8289 22.1521C26.2336 21.7238 26.5538 21.2374 27.0638 20.9394C26.4526 19.7156 25.6501 21.4175 25.8289 22.1521ZM49.805 32.2456C49.0054 32.6225 47.9798 32.9288 47.3437 33.4541C48.3374 33.1894 49.5057 33.3668 49.8092 32.2456H49.805ZM42.5581 41.5491C42.1299 41.4563 41.6046 41.0266 41.1445 40.8215C42.3517 41.8998 44.0244 42.3003 45.3909 43.1623C44.8366 42.6551 41.8957 40.9518 41.4037 40.834L42.5581 41.5491ZM51.0731 31.2034C51.8077 31.1867 52.7584 30.7613 53.5982 30.5991C52.5075 30.2222 51.9975 30.43 51.0731 31.2034ZM17.1102 26.72C16.8247 27.5668 17.9321 27.819 18.5626 28.1211C18.4864 27.4559 17.5828 27.1274 17.1102 26.72ZM52.4327 24.3071C52.2692 24.3251 47.9798 27.1538 47.7691 27.3894C49.4295 26.5301 50.9359 25.4366 52.4327 24.3071ZM27.1289 41.2276C26.8517 40.6732 25.8982 38.805 25.129 39.5839C25.9398 39.9138 26.5496 40.5901 27.1289 41.2276ZM46.5121 23.4326C46.0964 23.8165 45.9578 24.6217 45.8039 25.2149C46.8253 25.1151 46.4622 24.1769 46.5121 23.4326ZM17.7699 28.6797C17.0381 28.3235 16.1997 27.5474 15.3792 27.7733C15.9225 27.8994 16.4284 28.0394 16.5392 28.6866C16.833 28.2348 17.0645 28.8473 17.3001 29.04C17.3126 28.602 17.3056 28.6339 17.7699 28.6797ZM47.8565 31.7979C48.4247 32.1001 49.4156 31.5651 50.1376 31.4986C49.216 31.342 48.6409 31.123 47.8565 31.7979ZM42.1743 39.297C43.1305 39.8431 44.1589 40.0163 45.2468 40.0662C44.267 39.6366 43.222 39.4744 42.177 39.297H42.1743ZM47.079 34.2316C48.0174 34.3186 48.9639 34.2183 49.8632 33.9364C49.1384 33.4 47.9798 34.2052 47.079 34.2316ZM27.0222 37.5993C27.2287 37.7836 29.1897 37.4898 29.4531 37.2237C28.573 36.9258 27.8662 37.3762 27.0222 37.5993ZM49.5265 33.5941C49.1675 32.8942 47.5474 34.0098 46.7865 34.0417C47.5904 34.1942 48.627 33.6772 49.5265 33.5941ZM50.3483 20.4793C50.3968 20.8202 50.9872 22.0703 51.5125 21.7072C51.676 21.2124 50.6393 20.8493 50.3483 20.4793ZM27.1622 21.4619C26.3874 21.7238 26.0881 22.1756 26.7173 22.888L27.1622 21.4619ZM50.613 28.2403C50.0476 28.3415 49.514 28.5799 49.5043 29.2312C52.0779 28.1974 49.5348 29.1564 50.613 28.2403ZM37.6437 40.1314C37.6992 39.8625 37.9514 39.9082 38.108 39.8084C37.0589 39.5618 34.0861 40.8354 37.6437 40.1314ZM21.1862 17.0464C20.5334 17.0339 19.7129 17.4026 19.0047 17.5162C20.866 17.1642 21.2596 17.2945 19.329 18.2202C19.9693 18.0456 20.9616 17.7615 21.1862 17.0464ZM48.1641 21.5741C48.0505 21.9539 48.4067 22.6122 48.4579 23.0986L48.6173 22.96C48.5009 23.2635 48.5092 23.4326 48.645 23.653C49.2243 23.1125 48.2861 22.2463 48.1572 21.5741H48.1641ZM46.6784 24.6993C47.2134 24.3806 47.4518 23.653 46.824 23.2081C46.7685 23.7154 46.72 24.2073 46.6715 24.6993H46.6784ZM28.494 40.446C29.1398 39.9928 29.8411 39.6366 30.4149 39.0989C29.6845 39.3594 28.8599 39.7087 28.494 40.446ZM16.3355 23.2081C15.1866 22.0814 13.5069 20.5666 12.2083 19.6422C13.6205 20.7883 14.8845 22.1105 16.3355 23.2081ZM42.4487 41.204C41.8666 40.6899 41.175 39.8861 40.4155 39.875C41.0046 40.4584 41.7405 40.8035 42.4487 41.204ZM21.7405 42.9891L20.6068 43.5337C20.8036 43.6363 20.7233 43.7791 20.6623 43.9426L21.9817 43.1873L21.7405 42.9891ZM18.9147 43.8386C19.8709 43.725 20.5777 43.1304 21.3525 42.6883C20.5007 42.9859 19.6823 43.3714 18.9105 43.8386H18.9147ZM50.0212 21.9816C50.2693 22.6149 50.656 22.6025 51.2685 22.5664C50.9484 22.1465 50.4869 22.1146 50.0212 21.9816ZM22.8492 32.8568C22.8894 32.5796 22.888 32.5713 22.6815 32.5186C20.2368 31.8589 20.848 32.1416 22.8492 32.8568ZM49.5195 27.266C49.083 27.5141 48.6229 27.7331 48.3027 28.1516C48.7102 28.0103 49.6609 27.8315 49.5154 27.266H49.5195ZM44.7202 35.5967C43.9343 35.7713 43.2303 35.9598 42.4792 36.1996C43.2303 36.3104 44.0438 35.9972 44.716 35.5967H44.7202ZM51.9435 34.6044C51.3284 34.4884 50.7019 34.4447 50.0767 34.4741C50.5673 34.7859 51.4917 34.8566 51.9393 34.6044H51.9435ZM44.9876 36.7456C44.0314 36.6666 42.8852 36.4532 42.0107 36.7456H44.9876ZM46.2446 35.3777C46.8143 35.7796 47.8814 35.2017 48.6118 35.2253C47.8246 35.2835 46.9903 35.1504 46.2405 35.3777H46.2446ZM52.0391 25.8677C51.2533 26.2238 50.4065 26.8212 49.6027 27.2536C50.3358 27.4032 51.2602 26.1933 52.0349 25.8677H52.0391ZM17.3763 28.0421C17.3029 27.6028 16.5933 26.9237 16.2801 27.4032L17.3763 28.0421ZM17.3943 19.2167C18.1621 19.0476 19.0436 18.6235 19.8543 18.3685C18.9909 18.2216 18.2065 18.9714 17.3943 19.2167ZM40.7454 10.5326C41.2762 10.5784 42.1604 10.4828 42.4348 9.92701L40.7454 10.5326ZM45.5212 25.2107C45.6931 24.0189 45.7416 23.1513 45.2842 24.8019C45.2135 25.0458 45.2371 25.0749 45.5212 25.2066V25.2107ZM23.3468 40.9186V40.3961C21.9373 40.9061 22.1092 40.7453 23.3495 40.9144L23.3468 40.9186ZM48.4455 25.9674C49.1093 25.5835 50.0725 24.9571 50.631 24.4429C49.7787 24.7243 49.1675 25.456 48.4455 25.9674ZM23.9413 23.872C24.2712 23.2816 24.9946 22.6163 25.1249 22.0703C24.8408 22.6399 23.7833 23.319 23.9413 23.872ZM24.2351 26.562C24.5761 26.8905 24.7465 27.345 25.1873 26.95C25.0029 26.526 24.6509 26.616 24.2351 26.562ZM49.5112 30.0406C50.9248 28.961 50.735 29.0247 49.2437 29.8064C49.5084 29.8313 49.5223 29.8452 49.5168 30.0406H49.5112ZM49.0636 34.4838C48.0934 34.5157 47.2051 34.9231 46.2682 35.1255C47.23 35.0271 48.1253 34.6557 49.0691 34.4838H49.0636ZM26.4068 32.5435C27.7498 33.3391 25.524 31.809 25.0514 31.4695C25.4409 31.8686 25.9467 32.3703 26.4831 32.6946L26.4068 32.5435ZM47.8703 34.3702C48.4732 34.5268 49.2188 34.3078 49.8009 34.1055C49.162 34.1082 48.5106 34.2926 47.8703 34.3702ZM50.4079 21.8291C50.315 21.6393 49.6748 21.1362 49.4932 21.1182C49.7357 21.5215 49.848 21.965 50.4079 21.8347V21.8291ZM46.5052 19.9665C46.2876 20.4446 46.0465 20.7135 46.5634 20.9532C46.6475 20.6282 46.6271 20.2849 46.5052 19.972V19.9665ZM30.0656 38.97C29.679 38.8231 29.0955 39.2014 29.0387 39.6629L30.0656 38.97ZM28.2335 40.949C27.8365 40.468 27.3906 40.0295 26.903 39.6407C27.1705 40.2575 27.7817 40.5222 28.2335 40.949ZM46.7755 28.4967L47.8675 27.7095C47.5349 27.8564 46.5482 27.995 46.7755 28.4967ZM47.8994 27.4296C48.3429 27.643 49.0081 26.853 49.4308 26.5842C48.9416 26.7477 48.4039 27.1759 47.8994 27.4296ZM48.1475 24.2143C48.4011 23.9482 48.7254 23.6696 48.3956 23.3328C48.2625 23.6045 47.9535 23.8165 48.1475 24.2143ZM32.7363 46.4455C32.976 45.4948 33.0134 44.393 33.0134 43.4672C32.922 44.4595 32.8296 45.4523 32.7363 46.4455ZM49.6179 28.311C49.2701 28.5092 48.8945 28.6395 48.6256 28.9457C48.9305 28.7573 49.7357 28.8002 49.6179 28.311ZM15.1159 27.2896C15.4457 27.4407 15.8352 27.765 16.1387 27.3769C15.8643 27.133 15.4652 27.3492 15.1159 27.2896ZM47.4365 34.402C46.86 34.3009 45.9883 34.4602 45.3494 34.6875L47.4365 34.402ZM21.2014 32.4063C21.638 32.714 22.3254 32.9094 22.8548 33.1838C22.7106 32.6738 21.6698 32.696 21.2014 32.4063ZM20.9464 37.9416C20.7635 38.2424 20.9963 38.6706 21.322 38.4461C21.5091 38.1939 21.1099 38.0761 20.9464 37.9416ZM41.3704 10.9928C40.8826 11.026 40.4682 11.2367 40.0511 11.4432C40.4862 11.306 41.1043 11.4238 41.3704 10.9928ZM45.4741 21.1584C45.5087 20.8812 45.6473 20.6289 45.6349 20.3545C45.1733 20.4446 45.1733 20.8396 45.4741 21.1584ZM26.7436 38.0747C26.3611 37.7795 26.1615 37.7393 25.786 37.8737C26.1588 38.1509 26.3556 38.119 26.7436 38.0747ZM52.5879 30.0739C52.9275 30.0462 53.2268 29.3352 53.6218 29.1439C53.116 29.2811 52.8069 29.629 52.5879 30.0739ZM23.3454 24.3653C23.0682 24.6883 23.1583 24.9835 23.5339 25.0916C23.6808 24.9142 23.3897 24.6162 23.3412 24.3626L23.3454 24.3653ZM26.623 27.5307L25.6987 26.774C25.937 27.0914 26.1033 27.6957 26.6189 27.528L26.623 27.5307ZM51.834 23.4215C51.518 23.4437 50.8639 24.0535 50.6366 24.3002C51.0523 24.0327 51.5249 23.8373 51.834 23.4215ZM18.6638 30.577L18.097 31.0634C18.352 31.2893 18.9507 30.692 18.6638 30.577ZM49.4211 33.1644C49.9159 33.1797 50.5118 32.8637 51.0842 32.7487C50.5396 32.8457 49.8743 32.8692 49.4211 33.1644ZM24.0591 24.5649C24.9433 25.6251 24.935 25.4671 24.152 24.4263L24.0591 24.5649ZM40.4987 39.7378C40.683 39.9068 41.218 40.1618 41.4799 40.1632C41.3108 39.8569 40.8147 39.8126 40.4987 39.7378ZM20.5847 11.0136C20.1384 10.4107 20.0303 10.3026 19.8917 10.3206C20.0996 10.5825 20.1828 10.9484 20.5847 11.0136ZM18.8301 30.7128L18.4504 31.1285C18.7747 31.2588 19.1073 30.9317 18.8301 30.7128ZM25.136 21.9594C25.4132 21.6933 25.4132 21.6933 25.2995 21.3649C25.2053 21.5547 24.8713 21.7792 25.1415 21.9594H25.136ZM16.9231 26.2959C16.7222 26.1753 16.5365 26.0104 16.2565 26.07C16.4602 26.1448 16.8358 26.6937 16.9287 26.2959H16.9231ZM48.433 28.3304C48.6894 28.444 49.2437 27.8814 49.5999 27.7622C49.2881 27.7178 48.8072 28.1946 48.4385 28.3304H48.433ZM23.2886 44.4152C22.967 44.4831 22.3517 44.8975 22.1882 45.2301L23.2886 44.4152ZM51.9906 24.2614C51.5194 24.4429 50.6962 25.0694 50.2998 25.4311L51.9906 24.2614ZM20.0774 10.7475C19.8515 10.5701 19.8169 10.2596 19.5231 10.2042C19.6436 10.4259 19.6797 10.735 20.0774 10.7475ZM51.5624 26.8697C51.2228 26.9556 50.7156 27.1316 50.5285 27.4379C50.8652 27.3533 51.1923 27.0512 51.5624 26.8697ZM18.4393 28.7739L17.6078 28.2362C17.8198 28.6256 17.8988 28.6214 18.4407 28.7739H18.4393ZM24.5941 23.4922C24.4319 23.6225 23.8457 23.9565 24.1783 24.1561C24.3197 23.9343 24.4587 23.713 24.5955 23.4922H24.5941ZM47.8883 24.2378L47.8565 24.1852C47.819 24.3113 47.783 24.436 47.7456 24.5608C48.0837 24.3543 48.1433 24.1699 47.9632 23.9551L47.8883 24.2378ZM24.9544 23.0058C25.1415 22.9476 25.6127 22.6274 25.3314 22.3918L24.9544 23.0058ZM18.6056 29.6997L17.9127 30.0226C18.0998 30.1612 18.3714 30.042 18.6056 29.6997ZM22.5582 42.5664C22.385 42.1908 22.0607 42.6315 21.8084 42.705C22.0609 42.6741 22.3113 42.6278 22.5582 42.5664ZM21.6837 40.7453C22.0828 40.3545 22.0011 40.3143 21.4952 40.4529C21.551 40.5547 21.614 40.6525 21.6837 40.7453ZM25.4256 27.7885C25.6335 28.0657 25.7388 28.0906 25.98 27.9271C25.8469 27.6915 25.6307 27.8273 25.4298 27.7816L25.4256 27.7885ZM51.0066 20.6775C50.929 20.5014 50.5756 20.2118 50.3137 20.3102C50.4204 20.5111 50.8029 20.543 51.0066 20.6775ZM37.634 15.7367C37.9639 15.8753 38.2605 16.1525 38.6762 16.0139L37.634 15.7367ZM22.6178 42.5789L22.1175 42.8103C22.3517 42.899 22.8063 42.8921 22.6178 42.5789ZM31.6456 41.3648C31.5444 41.2165 31.1175 40.938 31.0413 41.2872L31.6456 41.3648ZM42.1133 16.0485C41.6518 15.7436 41.3386 15.5801 41.8818 16.0984C41.9747 16.1871 42.0246 16.1747 42.1133 16.0485ZM21.8306 42.6495L22.5956 42.1562C22.2949 42.2255 21.9983 42.3031 21.8306 42.6495ZM51.7009 29.8424C52.245 29.7041 52.7638 29.4805 53.2379 29.18L51.7009 29.8424ZM26.763 39.6823C26.8295 39.3941 26.6327 39.3109 26.3764 39.164C26.314 39.3248 26.6729 39.5202 26.763 39.6837V39.6823ZM47.8079 22.8991C47.74 23.0099 47.7539 23.6627 47.898 23.7112C48.0075 23.4299 47.7955 23.1735 47.8079 22.9004V22.8991ZM48.9472 31.0523C49.1065 31.1341 49.7912 30.789 49.884 30.6365L48.9472 31.0523ZM50.2319 21.2124C50.4162 21.4314 50.5465 21.7169 50.8458 21.8278L50.2319 21.2124ZM21.419 40.4252C21.2721 40.2131 20.7842 40.5638 20.5292 40.5762C20.751 40.6372 21.1418 40.4487 21.419 40.4252ZM48.0796 26.7921L47.3866 27.2397C47.4892 27.3395 47.7691 27.1704 48.0796 26.7921ZM25.1873 27.5197C25.3383 27.686 25.603 27.7802 25.7416 27.6264C25.6044 27.4836 25.391 27.5612 25.1873 27.5197ZM38.1136 39.4883C38.1967 39.5396 38.2854 39.6269 38.3145 39.6061C38.8536 39.2569 38.5972 39.2943 38.1136 39.4883ZM31.1841 40.403C31.288 40.3642 31.428 40.4127 31.4612 40.2644C31.7038 39.674 31.3725 40.1674 31.1799 40.403H31.1841ZM21.2554 40.9269C20.9783 40.7301 20.8535 41.0003 20.6651 41.0253C20.7413 41.1611 21.0559 40.938 21.2513 40.9269H21.2554ZM27.5294 33.2975L26.9903 32.9607C27.2204 33.3086 27.2412 33.321 27.5253 33.2975H27.5294ZM51.378 25.7637C51.6368 25.7084 51.8689 25.5667 52.0363 25.3618C51.8548 25.3272 51.5859 25.6695 51.378 25.7637ZM25.452 26.8101C25.2773 26.6077 25.2773 26.6077 25.0805 26.6451C25.2954 26.9168 25.2954 26.9168 25.452 26.8101ZM50.9221 20.3726L51.5457 20.7149C51.4786 20.6103 51.3864 20.5242 51.2774 20.4644C51.1685 20.4046 51.0463 20.373 50.9221 20.3726ZM20.7427 10.4661C20.6914 10.3469 20.1149 10.1668 20.004 10.2361C20.2313 10.3719 20.5001 10.3802 20.7427 10.4661ZM49.6678 28.1752C49.8425 28.1946 50.4356 27.8828 50.5202 27.7275L49.6678 28.1752ZM19.5799 25.5226C19.6215 25.3715 19.056 24.9918 18.9105 24.953L19.5799 25.5226ZM20.8161 42.6523C20.6179 42.6135 20.0331 42.8907 19.8751 43.0265L20.8161 42.6523ZM23.7792 24.2198L23.9774 24.4637C24.1354 24.3515 23.9496 23.9759 23.7792 24.2198ZM44.7825 20.5513C44.752 20.6581 44.9031 20.7662 44.9585 20.8964C45.1706 20.6775 44.9669 20.6581 44.7825 20.5513ZM51.5125 29.9755C51.3323 29.9547 50.7599 30.2041 50.6518 30.3497L51.5125 29.9755ZM51.913 31.2145C51.791 31.1632 51.1951 31.3115 51.148 31.4431L51.913 31.2145ZM28.0824 37.8349C28.2501 37.8737 28.8322 37.803 28.9347 37.6742L28.0824 37.8349ZM46.6868 23.8248C46.7159 23.6558 46.799 23.3356 46.7186 23.1845C46.569 23.355 46.7006 23.6156 46.6868 23.8248ZM48.961 28.1863C49.2451 28.1336 49.5847 27.9507 49.5902 27.844L48.961 28.1863ZM22.8825 40.9837L22.4141 41.0724C22.7106 41.1971 22.7522 41.193 22.8825 40.9837ZM23.714 23.8484C23.5838 23.987 23.6004 24.0507 23.7334 24.163C23.8651 24.0521 23.8485 23.9579 23.7196 23.8484H23.714ZM51.1036 24.6689C51.2228 24.6827 51.7148 24.3778 51.6968 24.2531L51.1036 24.6689ZM26.8503 27.7747C26.6965 27.5931 26.5246 27.6915 26.3722 27.6832C26.5011 27.8121 26.6702 27.7248 26.8503 27.7691V27.7747ZM51.2672 28.7268L51.7273 28.4177C51.5624 28.4842 51.317 28.4413 51.2672 28.7212V28.7268ZM23.6877 41.15C23.7459 40.9366 23.5491 40.8631 23.3925 40.9962L23.6877 41.15ZM49.9755 27.6472C50.1778 27.7414 50.2832 27.6832 50.3123 27.4517L49.9755 27.6472ZM19.0006 31.2325C18.7858 31.202 18.7664 31.2186 18.6929 31.4944L19.0006 31.2325ZM52.5075 24.6342C52.4105 24.5788 52.0197 24.8753 52.0045 24.971L52.5075 24.6342ZM30.9956 41.1722H30.6782C30.6942 41.2001 30.7173 41.2233 30.7452 41.2394C30.7731 41.2556 30.8047 41.2641 30.8369 41.2641C30.8691 41.2641 30.9007 41.2556 30.9286 41.2394C30.9564 41.2233 30.9795 41.2001 30.9956 41.1722ZM18.5225 17.2501C18.4324 17.1864 17.9764 17.3347 17.9168 17.422L18.5225 17.2501ZM22.888 42.4985C23.071 42.644 23.1652 42.4708 23.2761 42.3876L22.888 42.4985ZM43.1832 36.9937C42.9109 36.9653 42.6364 36.9653 42.3641 36.9937H43.1832ZM52.1832 24.2434C52.0696 24.2226 51.6885 24.4859 51.6677 24.5912L52.1832 24.2434ZM41.2887 39.7904C41.3995 39.8666 41.4993 40.0039 41.6656 39.8556L41.2887 39.7904ZM38.7095 39.9942C38.5945 39.9179 38.5196 39.7364 38.3048 39.8306L38.7095 39.9942ZM25.621 21.9857C25.5032 21.9622 25.628 22.4084 25.725 22.3447L25.621 21.9857ZM51.5374 22.4736L51.2381 22.335C51.3087 22.4001 51.3171 22.6136 51.5291 22.4736H51.5374ZM20.8993 37.5577C20.8147 37.5896 20.7926 37.7559 20.7274 37.8446C20.9339 37.9569 20.8563 37.6963 20.8993 37.5577Z" fill="black"/>
</g>
<defs>
<clipPath id="clip0_448_567">
<rect width="66.163" height="58" fill="white" transform="translate(0.674805)"/>
</clipPath>
</defs>
</svg>
