{
	"asset":{
		"generator":"Khronos glTF Blender I/O v4.3.47",
		"version":"2.0"
	},
	"extensionsUsed":[
		"KHR_materials_specular",
		"KHR_materials_ior"
	],
	"scene":0,
	"scenes":[
		{
			"name":"Scene",
			"nodes":[
				1
			]
		}
	],
	"nodes":[
		{
			"mesh":0,
			"name":"Cylinder.013",
			"translation":[
				11.032703399658203,
				-0.17477501928806305,
				1.9690589904785156
			]
		},
		{
			"children":[
				0
			],
			"mesh":1,
			"name":"Cylinder.002",
			"rotation":[
				0,
				0,
				-0.7071068286895752,
				0.7071068286895752
			],
			"scale":[
				0.2180861383676529,
				0.2907273769378662,
				0.2180861383676529
			],
			"translation":[
				0.13281917572021484,
				0.07940846681594849,
				2.5666098594665527
			]
		}
	],
	"materials":[
		{
			"doubleSided":true,
			"name":"b",
			"pbrMetallicRoughness":{
				"baseColorFactor":[
					0,
					0,
					0,
					1
				],
				"metallicFactor":0,
				"roughnessFactor":0.28306877613067627
			}
		},
		{
			"doubleSided":true,
			"name":"chrom",
			"pbrMetallicRoughness":{
				"baseColorFactor":[
					0.800000011920929,
					0.800000011920929,
					0.800000011920929,
					1
				],
				"roughnessFactor":0.10052909702062607
			}
		},
		{
			"doubleSided":true,
			"name":"Weld_7",
			"normalTexture":{
				"index":0
			},
			"pbrMetallicRoughness":{
				"baseColorFactor":[
					0.800000011920929,
					0.800000011920929,
					0.800000011920929,
					1
				],
				"roughnessFactor":0.33636367321014404
			}
		},
		{
			"doubleSided":true,
			"extensions":{
				"KHR_materials_specular":{
					"specularFactor":0
				},
				"KHR_materials_ior":{
					"ior":1.4500000476837158
				}
			},
			"name":"Material",
			"pbrMetallicRoughness":{
				"baseColorFactor":[
					0.800000011920929,
					0.800000011920929,
					0.800000011920929,
					1
				],
				"metallicFactor":0.07183794677257538,
				"roughnessFactor":0.06818181276321411
			}
		},
		{
			"doubleSided":true,
			"name":"Material.001",
			"pbrMetallicRoughness":{
				"baseColorFactor":[
					0.8000000715255737,
					0.7629882097244263,
					0,
					1
				],
				"metallicFactor":0,
				"roughnessFactor":0
			}
		}
	],
	"meshes":[
		{
			"name":"Cylinder.002",
			"primitives":[
				{
					"attributes":{
						"POSITION":0,
						"NORMAL":1,
						"TEXCOORD_0":2
					},
					"indices":3,
					"material":0
				},
				{
					"attributes":{
						"POSITION":4,
						"NORMAL":5,
						"TEXCOORD_0":6
					},
					"indices":7,
					"material":1
				},
				{
					"attributes":{
						"POSITION":8,
						"NORMAL":9,
						"TEXCOORD_0":10
					},
					"indices":11,
					"material":2
				}
			]
		},
		{
			"name":"Cylinder.005",
			"primitives":[
				{
					"attributes":{
						"POSITION":12,
						"NORMAL":13,
						"TEXCOORD_0":14
					},
					"indices":15,
					"material":3
				},
				{
					"attributes":{
						"POSITION":16,
						"NORMAL":17,
						"TEXCOORD_0":18
					},
					"indices":19,
					"material":4
				},
				{
					"attributes":{
						"POSITION":20,
						"NORMAL":21,
						"TEXCOORD_0":22
					},
					"indices":23,
					"material":1
				}
			]
		}
	],
	"textures":[
		{
			"sampler":0,
			"source":0
		}
	],
	"images":[
		{
			"mimeType":"image/png",
			"name":"Weld_7_normal",
			"uri":"Weld_7_normal.png"
		}
	],
	"accessors":[
		{
			"bufferView":0,
			"componentType":5126,
			"count":120,
			"max":[
				-2.0307693481445312,
				0.30254942178726196,
				0.3341587781906128
			],
			"min":[
				-2.2201035022735596,
				-0.32787221670150757,
				-0.3340888023376465
			],
			"type":"VEC3"
		},
		{
			"bufferView":1,
			"componentType":5126,
			"count":120,
			"type":"VEC3"
		},
		{
			"bufferView":2,
			"componentType":5126,
			"count":120,
			"type":"VEC2"
		},
		{
			"bufferView":3,
			"componentType":5123,
			"count":720,
			"type":"SCALAR"
		},
		{
			"bufferView":4,
			"componentType":5126,
			"count":376,
			"max":[
				4.854880332946777,
				0.9215186834335327,
				0.6768112182617188
			],
			"min":[
				-2.135796546936035,
				-0.9253001809120178,
				-0.6767439842224121
			],
			"type":"VEC3"
		},
		{
			"bufferView":5,
			"componentType":5126,
			"count":376,
			"type":"VEC3"
		},
		{
			"bufferView":6,
			"componentType":5126,
			"count":376,
			"type":"VEC2"
		},
		{
			"bufferView":7,
			"componentType":5123,
			"count":2226,
			"type":"SCALAR"
		},
		{
			"bufferView":8,
			"componentType":5126,
			"count":13152,
			"max":[
				-1.4318370819091797,
				0.34323084354400635,
				0.3238706588745117
			],
			"min":[
				-1.60870361328125,
				-0.28454646468162537,
				-0.3387889862060547
			],
			"type":"VEC3"
		},
		{
			"bufferView":9,
			"componentType":5126,
			"count":13152,
			"type":"VEC3"
		},
		{
			"bufferView":10,
			"componentType":5126,
			"count":13152,
			"type":"VEC2"
		},
		{
			"bufferView":11,
			"componentType":5123,
			"count":72576,
			"type":"SCALAR"
		},
		{
			"bufferView":12,
			"componentType":5126,
			"count":5495,
			"max":[
				9.03956413269043,
				6.009572982788086,
				2.985258102416992
			],
			"min":[
				-9.047577857971191,
				-6.009572982788086,
				-3.341005802154541
			],
			"type":"VEC3"
		},
		{
			"bufferView":13,
			"componentType":5126,
			"count":5495,
			"type":"VEC3"
		},
		{
			"bufferView":14,
			"componentType":5126,
			"count":5495,
			"type":"VEC2"
		},
		{
			"bufferView":15,
			"componentType":5123,
			"count":21912,
			"type":"SCALAR"
		},
		{
			"bufferView":16,
			"componentType":5126,
			"count":4498,
			"max":[
				-0.05828046798706055,
				4.005029678344727,
				3.341005325317383
			],
			"min":[
				-4.583527565002441,
				-2.0156002044677734,
				0.3769187927246094
			],
			"type":"VEC3"
		},
		{
			"bufferView":17,
			"componentType":5126,
			"count":4498,
			"type":"VEC3"
		},
		{
			"bufferView":18,
			"componentType":5126,
			"count":4498,
			"type":"VEC2"
		},
		{
			"bufferView":19,
			"componentType":5123,
			"count":7596,
			"type":"SCALAR"
		},
		{
			"bufferView":20,
			"componentType":5126,
			"count":5931,
			"max":[
				4.360884666442871,
				-2.1084156036376953,
				1.8337631225585938
			],
			"min":[
				3.183061361312866,
				-3.099824905395508,
				0.026463031768798828
			],
			"type":"VEC3"
		},
		{
			"bufferView":21,
			"componentType":5126,
			"count":5931,
			"type":"VEC3"
		},
		{
			"bufferView":22,
			"componentType":5126,
			"count":5931,
			"type":"VEC2"
		},
		{
			"bufferView":23,
			"componentType":5123,
			"count":35472,
			"type":"SCALAR"
		}
	],
	"bufferViews":[
		{
			"buffer":0,
			"byteLength":1440,
			"byteOffset":0,
			"target":34962
		},
		{
			"buffer":0,
			"byteLength":1440,
			"byteOffset":1440,
			"target":34962
		},
		{
			"buffer":0,
			"byteLength":960,
			"byteOffset":2880,
			"target":34962
		},
		{
			"buffer":0,
			"byteLength":1440,
			"byteOffset":3840,
			"target":34963
		},
		{
			"buffer":0,
			"byteLength":4512,
			"byteOffset":5280,
			"target":34962
		},
		{
			"buffer":0,
			"byteLength":4512,
			"byteOffset":9792,
			"target":34962
		},
		{
			"buffer":0,
			"byteLength":3008,
			"byteOffset":14304,
			"target":34962
		},
		{
			"buffer":0,
			"byteLength":4452,
			"byteOffset":17312,
			"target":34963
		},
		{
			"buffer":0,
			"byteLength":157824,
			"byteOffset":21764,
			"target":34962
		},
		{
			"buffer":0,
			"byteLength":157824,
			"byteOffset":179588,
			"target":34962
		},
		{
			"buffer":0,
			"byteLength":105216,
			"byteOffset":337412,
			"target":34962
		},
		{
			"buffer":0,
			"byteLength":145152,
			"byteOffset":442628,
			"target":34963
		},
		{
			"buffer":0,
			"byteLength":65940,
			"byteOffset":587780,
			"target":34962
		},
		{
			"buffer":0,
			"byteLength":65940,
			"byteOffset":653720,
			"target":34962
		},
		{
			"buffer":0,
			"byteLength":43960,
			"byteOffset":719660,
			"target":34962
		},
		{
			"buffer":0,
			"byteLength":43824,
			"byteOffset":763620,
			"target":34963
		},
		{
			"buffer":0,
			"byteLength":53976,
			"byteOffset":807444,
			"target":34962
		},
		{
			"buffer":0,
			"byteLength":53976,
			"byteOffset":861420,
			"target":34962
		},
		{
			"buffer":0,
			"byteLength":35984,
			"byteOffset":915396,
			"target":34962
		},
		{
			"buffer":0,
			"byteLength":15192,
			"byteOffset":951380,
			"target":34963
		},
		{
			"buffer":0,
			"byteLength":71172,
			"byteOffset":966572,
			"target":34962
		},
		{
			"buffer":0,
			"byteLength":71172,
			"byteOffset":1037744,
			"target":34962
		},
		{
			"buffer":0,
			"byteLength":47448,
			"byteOffset":1108916,
			"target":34962
		},
		{
			"buffer":0,
			"byteLength":70944,
			"byteOffset":1156364,
			"target":34963
		}
	],
	"samplers":[
		{
			"magFilter":9729,
			"minFilter":9987
		}
	],
	"buffers":[
		{
			"byteLength":1227308,
			"uri":"michelin-intenstine_jakubkanna.bin"
		}
	]
}
